
<svg xmlns="http://www.w3.org/2000/svg" width="122.768" height="145.999" viewBox="0 0 122.768 145.999"><path fill="#C6C6C5" d="M61.26 141.69c33.902.07 61.44-27.358 61.508-61.26.068-33.9-27.36-61.44-61.26-61.507S.067 46.283 0 80.183v.123c-.035 33.867 27.392 61.35 61.26 61.385"/><path fill="#FFF" d="M95.648 77.766c.004-.196.035-.364.035-.567V59.66S95.64 43.563 80.44 42.25c-5.288-4.71-12.1-7.35-19.18-7.434-7.11.084-13.947 2.744-19.245 7.487-4.54.625-15.177 3.553-15.177 17.358V77.2s0 .262.03.693c-.004.26-.03.51-.03.77 0 24.214 15.41 43.844 34.423 43.844 19.012 0 34.423-19.63 34.423-43.845 0-.303-.03-.594-.035-.896"/><path fill="#1D1D1B" d="M74.964 70.226c-2.62 0-4.75 1.856-4.75 4.137 0 2.28 2.13 4.137 4.75 4.137 2.617 0 4.75-1.855 4.75-4.137 0-2.28-2.133-4.137-4.75-4.137M47.136 86.14c-6.504.013-11.787-5.25-11.8-11.754-.013-6.504 5.25-11.787 11.754-11.8s11.787 5.25 11.8 11.754v.022c0 6.496-5.26 11.764-11.754 11.778"/><path fill="#C6C6C5" d="M47.136 64.597c-5.394-.01-9.775 4.353-9.786 9.746-.01 5.395 4.354 9.775 9.747 9.787 5.394.01 9.775-4.354 9.786-9.748v-.02c0-5.385-4.362-9.754-9.747-9.765"/><path fill="#1D1D1B" d="M82.038 69.14c-.29 0-.564-.124-.754-.342-3.043-3.49-8.34-3.854-11.83-.81-.29.25-.56.522-.812.81-.367.417-1.002.457-1.418.09-.416-.366-.456-1-.09-1.417 3.772-4.322 10.335-4.77 14.658-.998.354.31.688.644.998 1 .367.416.326 1.05-.09 1.417-.182.16-.418.25-.662.25M32.18 81.023c-.888-.002-1.606-.725-1.604-1.612 0-.346.114-.684.322-.96l.088-.12c.528-.714 1.534-.863 2.247-.336.713.528.862 1.535.335 2.248 0 0-.002 0-.002.002l-.1.135c-.303.405-.78.643-1.285.643M28.6 86.445c-.89 0-1.606-.723-1.605-1.61 0-.288.08-.57.228-.82l.075-.128c.45-.765 1.435-1.02 2.2-.57.764.45 1.02 1.434.57 2.2l-.086.144c-.29.488-.816.787-1.382.785m-2.972 5.783c-.228 0-.452-.05-.66-.145-.808-.366-1.167-1.318-.802-2.127l.065-.145c.362-.808 1.313-1.168 2.122-.804.81.363 1.17 1.314.806 2.123 0 0 0 .002-.002.003l-.066.146c-.26.577-.832.947-1.464.948M23.31 98.3c-.89-.002-1.608-.723-1.607-1.61 0-.17.028-.34.08-.5l.046-.142c.27-.844 1.175-1.31 2.02-1.038.844.27 1.31 1.176 1.038 2.02l-.054.163c-.216.66-.83 1.106-1.525 1.107m-1.632 6.293c-.887.002-1.606-.715-1.608-1.602 0-.104.01-.21.03-.312l.034-.173c.178-.868 1.025-1.43 1.895-1.253.868.178 1.43 1.025 1.252 1.895v.004l-.03.14c-.146.756-.806 1.302-1.574 1.303m-.928 6.438c-.048 0-.095 0-.143-.005-.885-.08-1.537-.86-1.458-1.744l.013-.16c.08-.884.86-1.534 1.743-1.455s1.534.86 1.455 1.743l-.013.156c-.073.828-.765 1.465-1.597 1.467m-.212 6.5c-.873 0-1.586-.7-1.604-1.572l-.003-.158c-.02-.887.683-1.623 1.57-1.644h.036c.873 0 1.585.7 1.604 1.572l.004.158c.02.888-.684 1.623-1.57 1.644h-.036m.503 6.485c-.808-.002-1.488-.604-1.59-1.406l-.02-.16c-.115-.878.505-1.685 1.384-1.798.88-.115 1.686.505 1.8 1.385v.01l-1.59.202 1.6-.13.01.084c.114.88-.508 1.685-1.39 1.798-.066.008-.135.013-.203.013m1.207 6.39c-.74-.003-1.382-.507-1.558-1.226l-.04-.16c-.214-.86.312-1.73 1.172-1.944.86-.214 1.732.31 1.945 1.172 0 .004.003.01.004.014l.037.148c.212.862-.313 1.734-1.176 1.947-.124.03-.253.047-.383.047M24.107 136.548c-.664.002-1.26-.41-1.488-1.034-.314-.84.1-1.774.933-2.104.808-.318 1.72.078 2.04.885l.01.03c.003 0 .017.042.018.046.313.835-.11 1.765-.945 2.076-.182.067-.374.102-.568.102M80.168 121.755c-.146-.4-.578-.616-.985-.492-5.288 1.6-10.406 5.045-15.354 8.377-.865.582-1.722 1.158-2.57 1.718-.845-.56-1.7-1.136-2.562-1.716-4.95-3.332-10.07-6.78-15.357-8.38-.405-.122-.838.093-.984.493-2.533 7.703-2.533 16.016 0 23.72.146.397.58.612.985.49 5.287-1.6 10.404-5.044 15.353-8.376.864-.583 1.722-1.16 2.57-1.72.848.56 1.707 1.14 2.572 1.72 4.948 3.333 10.064 6.776 15.35 8.374.406.123.838-.093.985-.49 2.53-7.704 2.53-16.016-.002-23.72"/><path fill="#1D1D1B" d="M61.262 43.536c20.296 0 36.194 8.193 36.194 18.65v12.16c11.153-4.69 17.514-11.237 17.514-18.093 0-6.395-5.45-12.48-15.344-17.132-.353-.165-.577-.52-.576-.91V26.194c-.037-.086-.06-.178-.067-.272-1.14-13.406-17.71-23.91-37.72-23.91-20.015 0-36.583 10.504-37.724 23.91-.01.1-.03.198-.068.29v12c0 .39-.225.745-.577.91C13 43.775 7.553 49.86 7.553 56.254c0 6.855 6.358 13.403 17.512 18.093v-12.16c0-10.457 15.898-18.65 36.197-18.65m35.19 33.31c-.553 0-1.002-.45-1.002-1.003V62.186c0-9.175-15.337-16.64-34.188-16.64-18.854 0-34.19 7.465-34.19 16.64V75.84c0 .332-.165.644-.438.83-.274.19-.624.228-.933.105-12.808-5.04-20.155-12.52-20.155-20.522 0-7.087 5.647-13.704 15.92-18.676v-11.74c0-.16.038-.318.11-.46C23.07 11.117 40.397 0 61.262 0c20.88 0 38.217 11.134 39.688 25.41.07.132.106.278.107.426v11.74c10.27 4.974 15.92 11.59 15.92 18.677 0 8.003-7.348 15.483-20.156 20.522-.117.047-.24.07-.367.07M83.16 96.765c-.612-.71-1.508-1.115-2.446-1.104-1.17.1-2.173.87-2.572 1.974-.363.947-.267 2.008.26 2.874.297.462.806.743 1.355.75.722-.004 1.41-.3 1.91-.82.345-.353.524-.832.497-1.322-.06-.528-.377-.992-.848-1.238-.468-.268-1.04-.276-1.516-.022-.195.104-.27.35-.164.545.105.196.35.27.545.165.238-.12.52-.113.75.02.232.116.395.338.434.596.008.267-.096.525-.285.714-.35.355-.825.558-1.323.563-.286-.007-.55-.16-.694-.407-.378-.65-.438-1.435-.165-2.135.286-.796 1.002-1.357 1.843-1.446.698-.004 1.362.3 1.816.827.583.768.82 1.742.654 2.69-.02.165-.063.325-.125.478-.583 1.857-2.265 3.154-4.21 3.245-1.693.205-2.975-1.243-4.458-2.91-1.74-1.958-3.713-4.177-6.98-4.63-2.465-.34-5.538.393-6.176 1.846-.635-1.453-3.71-2.186-6.174-1.845-3.267.453-5.24 2.672-6.98 4.63-1.482 1.667-2.765 3.115-4.457 2.91-1.946-.09-3.628-1.388-4.21-3.245-.064-.152-.105-.313-.126-.477-.166-.95.07-1.924.653-2.69.455-.53 1.12-.833 1.817-.83.84.09 1.556.65 1.842 1.447.272.7.212 1.485-.165 2.135-.145.247-.407.4-.694.407-.497-.005-.974-.207-1.32-.563-.19-.188-.294-.447-.286-.713.04-.257.2-.478.433-.595.23-.133.513-.14.75-.02.195.104.44.03.544-.164.105-.195.032-.44-.164-.544-.475-.254-1.047-.245-1.515.022-.472.245-.79.71-.848 1.238-.027.49.152.97.496 1.32.5.522 1.188.818 1.91.822.55-.007 1.058-.288 1.354-.75.527-.866.623-1.927.26-2.874-.398-1.104-1.402-1.873-2.572-1.973-.938-.01-1.833.394-2.445 1.105-.75.94-1.06 2.155-.854 3.34.026.23.072.345.076.408.617 2.646 2.35 4.898 4.75 6.172.854.386 1.78.582 2.714.575 3.27 0 6.872-2.18 10.905-4.618 1.882-1.14 3.816-2.31 4.307-3.512.492 1.203 2.427 2.373 4.31 3.512 4.03 2.438 7.636 4.618 10.903 4.618.936.007 1.86-.19 2.714-.575 2.4-1.273 4.133-3.525 4.75-6.172.005-.063.05-.177.076-.408.204-1.185-.107-2.4-.856-3.34"/><path fill="#1D1D1B" d="M96.453 76.242c-.08 0-.16-.024-.226-.07-.11-.074-.176-.2-.175-.332V62.187c0-9.508-15.608-17.243-34.79-17.243-19.187 0-34.793 7.735-34.793 17.243V75.84c-.002.222-.183.4-.405.4-.05 0-.098-.01-.145-.026-12.566-4.944-19.773-12.22-19.773-19.96 0-14.332 24.724-25.99 55.114-25.99 30.39 0 55.112 11.658 55.112 25.99 0 7.74-7.207 15.016-19.772 19.96-.046.018-.096.028-.147.028"/><path fill="#1D1D1B" d="M61.26 44.14c19.628 0 35.595 8.095 35.595 18.047v13.06c11.904-4.81 18.717-11.712 18.717-18.995 0-13.887-24.363-25.185-54.31-25.185S6.95 42.365 6.95 56.252c0 7.283 6.812 14.186 18.716 18.994V62.188c0-9.953 15.968-18.05 35.595-18.05"/><path fill="#1D1D1B" d="M100.053 37.814c-.063 0-.126-.016-.183-.044-10.488-5.36-24.2-8.31-38.61-8.31s-28.122 2.95-38.61 8.31c-.196.1-.437.023-.538-.174-.03-.057-.045-.12-.044-.185V25.837c0-.094.032-.186.093-.258C23.525 11.556 40.636.603 61.26.603c20.645 0 37.768 10.97 39.105 25.01.056.06.088.14.09.223v11.576c0 .14-.073.27-.192.343-.064.038-.136.06-.21.06"/><path fill="#1D1D1B" d="M22.87 26.065V36.76c10.52-5.23 24.12-8.105 38.392-8.105 14.27 0 27.87 2.875 38.39 8.105V26.042c-.04-.05-.063-.108-.07-.17-1.166-13.72-18-24.465-38.32-24.465-20.322 0-37.154 10.746-38.32 24.464-.008.07-.033.138-.073.195M61.26 44.542c-4.4-.01-8.79.415-13.106 1.27 3.51 4.912 9.207 7.785 15.242 7.686 2.34.004 4.66-.41 6.852-1.227-2.333-.864-4.463-2.203-6.256-3.93 4.523 1.17 9.315.7 13.523-1.33-1.12-.304-2.207-.712-3.25-1.22-4.284-.84-8.64-1.258-13.004-1.248"/><path fill="#1D1D1B" d="M95.377 18.883c-.063-.118-.18-.24-.17-.35.04-.12.14-.207.26-.232.106.007.204.147.363.274l-.453.31M83.32 7.387l-.08-.022.048-.288c-.15-.07-.295-.135-.44-.202l.003-.07.687-.04-.216.622m-.468 16.414v-.646c.24-.004.464.075.486.328.008.078-.27.18-.486.318m-.057 2.494c-.538.1-.543.096-.49-.464.14-.02.286-.04.49-.066v.53zm-.14-2.96c-.06-.01-.116-.017-.23-.033.096.114.16.194.238.288-.403.295-.347-.136-.48-.24.297-.266.297-.266.472-.014m-2.2 1.953l.17-.248-.27.022c.12-.17.217-.31.32-.458.157.09.28.158.402.226-.012.025-.022.05-.035.074l-.264-.104c-.02.034-.037.068-.056.102l.46.197c-.248.066-.458.12-.726.19m-.568.935c-.073-.098-.092-.226-.05-.34.167-.22.388-.24.52-.008l.104.36c-.18.292-.395.19-.574-.012m-.57-20.413h-.47l.015-.367c.517-.045.547-.015.455.367m-.51 4.06c-.016.007-.12-.087-.116-.128.016-.204.054-.406.084-.61.048.006.096.01.144.014l.406.41c-.184.115-.347.22-.52.313m-.25 6.197c-.102-.202-.276-.396-.238-.526.042-.14.283-.223.437-.33.034.02.068.04.102.063l-.038.406c.035-.006.097-.013.16-.02l.03.06c-.133.1-.265.2-.455.347m-.396 9.304c-.194-.27-.194-.27.077-.878.335.307.325.394-.078.88m-.91-.605c-.277.023-.584.13-.638-.24l-.765-.045.053-.574c-.18-.018-.227-.283-.066-.61.065.018.133.042.204.056.06.01.12.01.23.016-.112-.106-.19-.18-.266-.25l.035-.115.86.153c-.014.146.018.457-.05.48-.24.046-.487.054-.73.026l-.072.236.64.037.123.364c.125-.046.262-.145.376-.123.073.014.113.205.182.34.007-.004.067-.04.182-.112.013.167.022.304.028.4-.107-.022-.216-.035-.326-.038m-1.027.697c.38-.02.38-.017.406.55h-.368l-.02-.086.282-.098c-.086-.104-.186-.225-.3-.366m.343 1.62l-.098.072c-.048-.073-.15-.17-.13-.213.113-.267-.114-.378-.224-.54.183-.19.183-.19.595.482l-.342-.05c.093.116.147.182.2.25m-1.34-1.36l.203-.143c-.065-.123-.176-.272-.154-.294.14-.125.29-.24.448-.34-.068.72-.068.72-.495.776m-.836-5.084c-.137-.122.357-.467.613-.39.096.04.188.085.276.14l-.06.577c-.45.244-.615-.135-.83-.327m.693 1.88c-.18.058-.364.095-.553.11l.118-.62c.147.05.318.062.4.153.063.108.076.238.036.356m-.987-2.13c-.09.165-.17.334-.236.507-.022.096.085.22.14.344-.005.004-.047.032-.085.064-.07.057-.14.166-.206.162-.065-.004-.14-.107-.187-.183-.08-.127-.146-.262-.197-.403-.08-.23-.142-.468-.215-.716l.842.093.02-.11-.14-.042-.005-.058.313-.06c0 .137-.017.272-.046.404m-.235 3.014c-.033.172-.097.337-.187.488-.41-.38-.71-.14-1.02.038.04.17.076.34.12.54-.176-.015-.353-.012-.528.007-.116.024-.22.09-.29.185-.062.1.103.323-.134.337-.145-.02-.284-.064-.413-.132l.006-.098.538-.118-.645-.122.03-.134.487.046-.134-.468c.285.047.403-.36.71-.208v-.277l-.57-.048c.14-.223.23-.364.355-.566-.278.127-.462.443-.77.162.08-.263.165-.534.25-.808.38.584.38.584.75.37.017-.122.03-.244.044-.345l-.36.023.014-.3c-.05-.02-.14-.053-.232-.087.167-.095.334-.19.52-.3.07.15.142.3.214.456.17-.11.32-.205.51-.326.036.135.065.24.1.363.02-.007.054-.028.08-.02.2.046.397.1.597.15-.052.165-.102.33-.157.494-.048.144-.102.285-.153.427.094.09.268.18.268.27m-1.47 2.507c-.035-.016-.07-.034-.107-.05l-.082.19c-.203-.113-.422-.217-.313-.5.036-.092.222-.218.283-.193.202.063.314.276.253.478-.01.026-.02.052-.034.076m-.482.88c.235-.148-.224-.663.38-.577.094.518.046.602-.38.578m-1.038-3.897c-.21-.023-.36-.21-.338-.42.003-.028.01-.056.02-.082.467-.056.687.047.64.32-.068.114-.19.183-.322.183m-.46 2.264c-.056.066-.252.01-.375.01.02-.264.03-.454.048-.696l.606.114c-.067.202-.16.395-.277.573m-.183-8.78c.115-.038.28.082.48.15-.493.492-.493.492-.697.47-.05-.25-.094-.52.217-.62m-.494-.525c-.046-.17-.054-.35-.02-.525.013-.057.22-.07.354-.106-.01-.267.177-.447.42-.37.033-.165.063-.336.114-.5.094.005.182.045.248.112-.073.03-.146.06-.22.093.3.628.21.846-.477.992.124.096.207.16.288.22-.142.06-.287.108-.436.144-.09.016-.263-.017-.272-.058m.055 6.804c-.01 0-.016-.016-.023-.025.01-.007.018-.02.025-.02.01 0 .017.015.024.024-.007.008-.016.023-.025.022m-.34 1.815c-.15-.208-.315-.35-.29-.423.085-.155.195-.294.325-.413.115.098.337.217.322.29-.032.16-.182.296-.358.547m-.95.988c-.31-.166-.443-.356-.274-.563.11-.134.338-.172.513-.252l.103.126c-.115.228-.228.456-.343.688m-.668-1.074l-.637.417c-.082-.155-.132-.326-.15-.5.005-.076.008-.597.433-.245.158.13.455.09.73.133l-.317.8c-.213-.028-.245-.157-.058-.604m-1.43.826c-.038.338-.412.223-.528.144-.323-.225-.553-.06-.812.07l.625.17c-.045.165-.04.382-.137.446-.166.126-.376.18-.582.148-.125-.05-.16-.34-.254-.57h-.063c.053-.126.085-.26.097-.395-.03-.124-.083-.24-.155-.346-.062.138-.13.272-.205.402-.09.14-.218.254-.37.325l.484-.976v-.387l.097-.006c-.104-.074-.21-.15-.31-.218l.227-.095-.4-.15.472-.25c-.05-.123-.1-.246-.147-.37l-.066.02.053.297-.512-.14c.238-.125.07-.494.4-.494.09 0 .18.096.292.16.107-.02.275-.054.444-.088l.09-.09c.02-.084.04-.168.047-.205h-1.623l.306-.544-.548.247c-.01-.23.026-.458.103-.674.06-.093.332-.08.504-.06.046.006.07.205.123.375h1.083c.07-.147.14-.295.192-.41.438 0 .86-.008 1.284.006.084.003.164.09.248.134.076.04.155.075.23.112.143-.182.403-.214.585-.074.023.02.045.04.064.063.133.253.25.514.355.78-.29.06-.552-.052-.74.255-.13.215-.305.007-.412-.144l-.264.345c.562-.042.723.103.63.526-.4.147-.856-.038-1.235.216.176.177.608.145.5.596l.13-.23c.203.193-.303.68.312.658-.208.1-.163.568-.612.42m-.56 1.066l-.062-.148c.124-.118.232-.308.376-.34.305-.07.292.24.48.525l-.794-.037M64.5 27.65l.103-.208.607.072c-.183.448-.44.208-.71.135m-.16-.73l-.14-.012.083-.307-.047-.023c-.054.088-.108.176-.16.264l-.06-.017.152-.565c-.356-.25.33-.45.18-.683l.29.05c-.093.262-.2.52-.268.786-.026.17-.036.34-.03.51m-.337 1.005c-.1-.103-.247-.192-.283-.314-.02-.066.142-.19.305-.388.12.215.24.33.222.416-.022.108-.158.192-.244.287m-.632-1.165c-.054.09-.108.18-.232.382-.114-.28-.207-.51-.313-.767.428-.042.847.13 1.05-.367l.105.07c-.03.07-.065.136-.092.206-.024.045-.038.095-.04.146.04.44.03.457-.392.62.01-.07.02-.133.026-.196l-.11-.094m-.435 1.37l-.04.005c-.01-.043-.022-.085-.034-.128l-.62.354-.35-.54c.28-.07.51-.29.716.077.04.073.214.073.327.107v.127zm-1.63-1.886c.202.25-.094.335-.165.49-.02.046-.147.096-.172.076-.236-.182-.46-.38-.723-.6.11-.076.213-.157.313-.245.156-.16.248-.327-.033-.46-.343.454-.343.454-.784.282l-.133-.41c.305-.274.61-.097.917.03.104-.106.21-.145.313 0 .08-.02.16-.026.24-.015.16.058.315.2.45-.04.01-.02.075-.02.11-.012.29.073.577.15.857.223l.086-.284c.26.487.172.742-.135.74l-.253-.39c.023.305-.012.406-.336.398-.293-.008-.55.036-.69-.3-.01-.026-.164.006-.252.01.13.17.256.34.39.506m-1.397.89l-.43-.13.26-.458c.056.02.113.044.17.067v.52zm-.686.632c-.104-.107-.188-.232-.248-.37-.016-.06.156-.243.23-.236.105.01.197.145.394.307-.193.153-.285.226-.376.3m-.103-4.41c.064-.026.272.115.287.2.045.272-.1.407-.41.355-.11-.232-.13-.45.124-.555m.3-14.425c-.3-.13-.355-.317-.183-.646l.058.342.42-.08c-.11.145-.203.265-.296.384m.396 15.666c-.13.1-.257.275-.396.285-.142.01-.296-.138-.444-.216l.36-.515.48.446m-.162-17.915c.113-.003.226.007.337.03.027.005.036.104.046.16.05.267-.215.595-.427.496-.29-.138-.724-.153-.72-.69.27 0 .517 0 .764.003m-1.366 7.73l.13-.673.314.23-.238.14.25.035.035.097-.492.172m-.247-2.25c-.01-.105.084-.222.133-.335l.096.044-.103.23.03.02.306-.348.11.09-.35.534c-.078-.078-.214-.15-.222-.235m-.11-4.173c-.148-.33-.135-.71.04-1.03.02-.045.174-.033.296-.053-.032.158-.054.265-.084.423l.184-.116c.23.482.22.65-.435.775m-.262 15.97c-.07.044-.215-.032-.326-.055l.258-.53.11.06-.217.375.1.062.246-.286.073.05c-.08.113-.137.26-.245.325m.19.55c-.03.188-.287.26-.584.18.245-.584.24-.56.394-.537.242.038.21.207.19.356m-.703-2.205l.214-.535c.158.043.34.04.398.123.054.138.078.285.07.432-.114.016-.23.026-.347.03-.11-.01-.223-.027-.335-.05m-.016-5.318c-.097.027-.193.056-.29.085l.007.05h.177l.015.072-.335.084c.028-.25.052-.46.074-.67.362-.064.37-.057.35.38m-.566 6.58c-.157-.07-.326-.15-.55-.252l.352-.337.69.212-.492.38m-.674 2.44c-.112-.026-.18-.242-.27-.374l.16-.13.162.337-.022-.52c.133.17.22.28.368.472-.13.077-.284.24-.398.214m-.583-2.468c.28-.004.603-.072.644.296.014.105-.276.367-.37.34-.266-.072-.38-.31-.273-.636m-.227 2.392c-.338.015-.253-.295-.323-.55l.176.148.073-.353c.133.165.29.274.29.383 0 .13-.133.367-.216.37m-.14-2.366c.073.115.204.23.203.345 0 .125-.125.248-.195.37h-.162c-.072-.142-.22-.3-.196-.422.022-.116.226-.197.35-.293m-.775-6.338l.357-.325c-.143-.03-.26-.057-.393-.087l.21-.31c.108.157.267.286.28.43.026.23-.13.363-.455.29m.192 7.32c-.115.075-.24.135-.372.18l-.043-.12.26-.088-.307-.146.005-.123c.144 0 .287.014.427.043.048.076.06.17.03.254m-.178-3.794c-.047.09-.092.18-.19.376.167-.103.23-.143.296-.182l.064.06c-.1.114-.197.227-.374.428l-.117-.837.32.153M53.823 7.62c.027-.076.31-.078.478-.084.036 0 .077.126.115.195-.07.035-.144.068-.215.102l-.014.076.494.046c-.134-.294-.172-.487.198-.48.226.003.26-.012.28.314.005.07-.092.18-.17.218-.38.194-.394.2-.442.617l-.534.038V8.12c-.344-.002-.255-.304-.19-.498m-.447-.513c-.026-.08.126-.22.218-.363-.024-.016-.11-.07-.2-.13.016-.055.016-.124.047-.145.195-.13.103-.208.018-.377-.054-.248-.06-.504-.02-.754.3.1.497.167.694.234-.088.238-.176.477-.276.753l.326-.136c-.136.257-.262.46-.35.677-.06.187-.1.378-.128.572-.124-.117-.285-.205-.33-.333m.204 15.478c-.103-.033-.267-.036-.3-.103-.153-.324.09-.442.41-.588-.04.263-.076.477-.11.69m-.664-2.55c-.204.384-.537.185-.796.18.01-.16-.034-.34.034-.408.142-.104.3-.184.465-.238l-.024-.07c-.057.008-.112.018-.113.018l-.233-.457.054-.163h.905c.073.36.104.667-.286.744 0 .15.042.297-.008.393m-.506 4.302c-.12-.225-.17-.464.234-.718.05.207.084.417.1.63-.102.057-.217.088-.334.088m-.583-2.074l.252-.394V22l.398.175c-.106.158-.17.25-.257.382l-.393-.296m-.253.48l-.235-.344c.14-.065.203-.438.477-.142l.128.3c-.14.07-.293.146-.37.186m.207 4.395c-.047.118-.094.24-.14.36-.358-.237-.358-.237.063-.955.063.08.122.162.183.243l-.424.23.318.122m-.098-1.937l-.277.065.067.326-.065.008-.272-.313c.203-.292.325-.313.546-.087m-.867-12.412c.015-.274.313-.1.36-.282-.064.242-.13.485-.196.747-.196-.09-.172-.254-.163-.464m-.37 13.13c.032-.163.063-.32.092-.48l.135-.06c.07.153.217.326.186.455-.023.125-.143.205-.266.18-.06-.01-.112-.045-.146-.095m.294-14.314c.018-.02.214.048.22.088.01.177.008.354-.007.53l-.616-.03c.18-.274.28-.44.402-.587m-.784-5.232c.078-.07.157-.137.26-.226-.098-.122-.17-.21-.266-.332.147-.044.263-.08.41-.123-.027-.173-.053-.347-.084-.56.21.057.507-.16.592.14.05.178-.116.42-.213.718-.003.052.038.308-.036.348-.2.076-.414.12-.63.133-.01-.033-.02-.066-.032-.098m-.38-.495c-.043-.11-.093-.173-.088-.233.01-.137.038-.272.08-.403.01-.028.113-.026.173-.038l.35.128-.59.278c.143.013.21.02.334.03-.092.085-.155.144-.258.237m-.267 9.247c-.114-.07-.184-.194-.184-.327.076-.312.305-.253.596-.12-.185.144.024.587-.413.447m-.226 2.503l-.07-.112c.04-.155.08-.31.126-.502l.51.373c-.23.1-.398.17-.566.243m-.085 5.46c-.168.002-.337-.02-.5-.06-.046-.018-.02-.223-.023-.348L49 22.57v.512zm-.83-.464c-.086-.17-.156-.35-.207-.534h.187c.143 0 .287 0 .43-.002-.01.127-.012.256-.033.38-.02.07-.044.137-.077.2-.107-.01-.265.01-.3-.045m-.603-5.98c.36.132 0-.67.582-.264l-.335.708-.247-.443m-.35-1.27l-.226-.166c.125-.136-.045-.496.464-.426l-.238.592m.074 3.34l-.25.076c-.02-.135-.042-.268-.064-.407l.354.034c.032.152.063.298.092.445l-.132-.15m-.464-2.014l-.098.042c-.072-.108-.21-.226-.198-.322.016-.12.16-.22.296-.385v.666zm-.39-1.626l.45.477.53-.105-.22.58-.1-.03.036-.174c-.234.08-.443.154-.696.242v-.99zm-.297 12.3l-.345-.28c.123-.115.247-.23.37-.348l.145.086c-.058.18-.115.36-.17.54m-.84-7.753l.316-.297.332.578-.434.102-.216-.383m.666-4.708h-.783c.34-.637.34-.637.783 0m-2.99 13.533c-.104-.017-.2-.13-.285-.217-.017-.017.046-.158.06-.156.14.023.28.062.437.102l.267-.383.125.11c-.263.125-.158.614-.603.543m-.524-1.237l.422-.203v.657c-.482.072-.298-.305-.422-.454m-.175-7.148c-.088-.04-.18-.074-.27-.103l-.06-.116c.12-.06.247-.1.38-.114.065.005.14.16.17.26.016.047-.057.123-.09.186-.037-.043-.08-.08-.13-.113m-.717-.028c-.358-.4-.358-.4.165-.784.26.44.26.44-.165.784m-.796 9.714c-.088-.12-.25-.245-.242-.36.008-.123.176-.236.273-.353l.298.38c-.147.148-.24.24-.33.334m-.343-20.19c.166-.057.34-.09.514-.097l-.165.674-.08-.01-.013-.162c-.1-.03-.247-.032-.314-.107-.035-.102-.012-.215.057-.297m-.4 18.77c-.055.025-.112.047-.22.092.04-.11.065-.173.09-.237-.397-.12-.097-.31-.015-.43.117-.033.243-.01.342.062.095.175.03.394-.145.49-.015.01-.033.017-.05.023m-.77.984l-.354-.328.34-.453c.093.085.188.17.288.264-.08.15-.17.32-.272.517m-1.76-8.167c-.124.08-.26.134-.403.163l-.06-.72c.17.05.335.128.484.23.05.105.043.23-.022.327m-1.41 6.522c-.045-.034-.09-.066-.133-.1l.16-.38-.25.03c.072-.08.115-.16.145-.154.14.026.275.06.41.102l-.332.5m-.415-2.585c-.363-.224-.274-.514-.212-.846.03-.165-.128-.36-.158-.547-.016-.096.064-.207.102-.31-.368-.367-.33-.833.088-.963.07-.022.265.1.266.16-.007.253-.03.506-.07.756l.187-.012-.228.294.315.183c-.207.337-.226.758-.05 1.112.035.113.01.237-.07.326-.173.1-.14-.134-.17-.153m-.708-6.196l.147-.228c-.14.067-.22.108-.292.143l-.283-.354c.39-.26.536-.765.343-1.192-.13-.388.04-.78-.157-1.12-.3-.51-.04-1.108-.267-1.633-.042-.098.03-.246.05-.37-.005-.302-.03-.602-.075-.9.007-.244.218-.484.34-.727l.134.064-.242.407c.45.15.464.215.135.938l.192-.12v.76c.455.456-.035 1.154.34 1.642-.267.5.377 1.078-.28 1.547l.148.012.168-.248c.117.562.127 1.05-.4 1.375m-.66 9.478c.2-.252.176-.33-.24-.563.202-.03.408-.07.41-.06.06.226.094.457.147.76l-.316-.137M33.36 12.13l-.66-.495.62-.165.13.574-.09.085m-1.83 10.29c-.012-.002-.02-.012-.022-.024 0-.01.017-.016.025-.024l.024.027c-.01.007-.02.022-.027.02m-3.032 9.915l.422-.49c.053.01.104.02.154.027l.107.68c-.248-.08-.42-.134-.682-.217m-.338-1.354c-.02.044-.132.092-.162.074-.27-.12-.434-.4-.406-.693.153.033.293.063.433.09.333.09.236.316.135.53m-4.494-4.39c-.1-.118-.243-.225-.28-.362-.005-.13.052-.254.153-.335.113-.058.237-.093.365-.103.012.114.017.188.03.26.013.087.08.203.044.252-.093.11-.198.206-.314.29m10.62-15.967l.41.206-.136.196.205.08c-.097.084-.185.16-.28.246l-.402-.217c.07-.18.127-.32.203-.51m7.198 5.03l.38.524c-.518.113-.577.048-.38-.526m.247-2.2c.102-.018.205-.02.307-.007-.16.147-.532.144-.174.464l-.195.133c-.087-.13-.16-.27-.214-.415-.01-.032.17-.14.277-.175m1.02-2.178c-.06.586-.06.586-.696.292.253-.09.283-.603.695-.292m-.155 6.425c-.01.07-.125.125-.193.186-.05-.08-.095-.165-.13-.252-.023-.103-.036-.207-.04-.312l.314-.026c.035.132.052.268.05.404m-.037-.418l.138-.623c.13.135.213.224.314.33l-.126.25-.327.042m.483-3.6c-.03.313-.23.464-.58.394.048-.214-.144-.54.24-.588.11-.013.346.136.34.193m3.13-.878c.015.213-.06.532-.433.45l-.102-.647c.267-.09.52-.07.536.197m.236-5.84l.397.043c.025.46-.063.553-.57.562l.173-.604m.505 5.21l-.29.36-.375-.333.11-.036c-.006-.094.01-.188.042-.275.033-.05.157-.064.23-.048.206.045.407.114.64.182l-.41.095.053.052m1.022-4.497c-.173.138-.126.55-.518.353.058-.19.113-.37.176-.57l.34.217m-.335-1.216c.073.005.134.21.19.328.05.1.09.204.153.356-.134.02-.27.016-.402-.01-.1-.04-.246-.154-.246-.236-.002-.198.008-.465.307-.44m.568 6.006c.124.03.316.025.356.1.058.173.088.354.09.536-.187-.024-.302-.04-.446-.06v-.576zm.225 8.55l.187-.264.092.036-.19.468c-.1-.084-.27-.158-.282-.253.01-.16.047-.32.112-.467l.086.047-.106.414.1.02m.445-15.095c.02.212.11.452.036.52-.3.284-.186-.26-.406-.243l.37-.278m-.086-.707c.427.072.428.4.37.74-.338-.027-.614-.14-.626-.514-.003-.078.183-.24.257-.227m2.396 4.99l-.137.033-.36-.226.024-.072c.06.006.116.01.153.015l.02-.338.138-.017.16.604m-.167-5.11c.378.02.74.023 1.097.07.07.008.15.176.166.28-.002.114-.018.227-.046.336.06.018.122.03.185.04-.012.08-.038.157-.077.227-.1.083-.207.156-.32.215.088-.16.132-.236.188-.337-.396-.105-.763-.2-1.187-.313-.005-.025-.007-.052-.005-.078v-.44m1.776-.755c-.29-.164-.1-.24-.02-.338.01-.153.037-.303.084-.448.032-.07.25-.132.258-.12.1.178.108.394.02.58.065.143.11.295.13.45 0 .056-.187.113-.303.176.47.302-.097.65-.04 1.026.114-.08.21-.145.342-.236v.408c-.463.12-.46.11-.465-.39-.023-.283-.063-.566-.118-.846-.093.19-.15.31-.236.488h-.143c-.2-.496.433-.418.49-.75m.455 2.995c-.263.104-.537.177-.816.217-.196-.773.508-.504.68-.807.037.01.072.023.107.035.012.193.094.52.028.555m-.78.63c.11-.122.236-.23.372-.322l.25.426c-.146.07-.3.12-.46.148-.054.002-.186-.22-.162-.252m-.24 12.888l.24.23c-.154.09-.31.177-.463.266-.03-.037-.064-.075-.097-.113l.32-.383m-.477-8.066c-.055.06-.186.05-.27.07-.038-.143-.047-.292-.027-.438.04-.11.202-.177.312-.263.056.09.165.188.157.272-.018.135-.077.26-.17.36m.005 3.506c-.01.182-.023.376-.034.555l-.456-.04c-.066-.303.02-.523.49-.514m-.19-.746l.12.59c-.05.012-.103.022-.155.033-.166-.063-.25-.25-.186-.415.01-.024.02-.047.035-.068.035-.062.124-.094.188-.14m.2-8.615c-.034.027.06.21.092.32l-.07.102c-.14-.095-.264-.207-.373-.333-.18-.222-.156-.544.053-.738.083-.03.175-.014.243.04.104.184.342.367.055.607m.228 3.975c-.11.16-.22.32-.383.554l-.173-.825.556.27m.61-4.267l.463-.374c-.065.178-.092.406-.165.422-.234.03-.47.037-.706.018-.008-.594.275-.56.645-.424-.114.098-.214.183-.313.27.025.03.05.058.073.088m-.257 2.936c-.002.134-.015.267-.038.4-.036.074-.084.142-.143.2-.095-.053-.18-.12-.254-.2-.108-.145-.186-.31-.225-.486-.01-.16.037-.32.13-.45.035-.046.335.01.34.045.032.19.128.428-.162.527-.014.006-.02.038-.076.153l.428-.19m.364 8.65c-.088.097-.22.142-.348.12-.246-.15-.213-.374-.053-.586.212.09.486.15.402.466m-.004-6.167c-.21-.01-.417-.045-.627-.07l-.032-.455.428-.396c.1.11.236.26.38.413.006.13.004.26-.007.39-.024.062-.078.107-.142.12m.536-1.914h-.675l-.273-1.164c.238-.073.517-.2.646.163.034.097-.072.244-.12.39.27.01.58.08.42.61m.253 8.013c-.06.16-.146.31-.255.444-.145-.146-.246-.245-.36-.357l.133-.48c.178.112.56.01.483.393m.165-13.71l.19-.46c-.568-.15-.063-.36.015-.554l.12-.02c.032.187.05.377.1.558.03.113.087.22.163.308.342.384.27.818-.252 1.088v-.562l-.482.302c-.067-.15-.188-.3-.18-.446.003-.094.192-.18.327-.213m1.268.828v.523l-.145-.3-.063.02.036.27c-.113.02-.224.04-.38.066.033-.163.014-.365.105-.454.098-.095.292-.09.448-.125m-.167-.96c.11-.036.23-.05.345-.04l.408-.38c-.264-.293-.24-.36.268-.643.03.36.066.705.08 1.052.005.095-.028.248-.09.28-.15.07-.09.128-.062.238.02.105.024.214.01.32l-.656.276-.124-.145.03-.394c-.135-.084-.28-.175-.427-.265.072-.103.122-.24.22-.3m.298-.64c-.055.057-.25.08-.286.038-.21-.244-.168-.49.098-.75.158.238.48.4.188.71m.09-1.485c.045.717.03.74-.486.706-.19-.8-.165-.836.486-.706m.814 4.25l-.276-.222c-.166.03-.334.05-.502.058-.047-.002-.14-.13-.13-.148.077-.142.176-.27.293-.382.037-.03.2.03.26.09.16.167.294.358.437.54l-.082.063M55.17 9.65c-.214-.19-.44-.37-.186-.646.07-.078.225-.08.34-.115l-.074.19c.554.22-.083.358-.08.57m.3-.95c-.068-.094.103-.366.166-.557l.212.023c.084.29.17.58.278.96-.24-.103-.464-.247-.655-.426m1.362 10.314c.063.082.095.295.044.336-.146.083-.306.14-.472.172l.146-.624c.07.026.22.037.282.116m-1.246-5.864l.823-.647.168.534c-.266.362-.62.152-.992.113m1.223-5.255l-.042.118-.43.098c-.038-.207-.067-.375-.117-.66l.59.445m.35-.93c.045 0 .09.145.133.223-.17.063-.224.397-.52.186-.095-.067-.297.018-.53.042.186-.322.55-.5.918-.45m-.31-5.115c-.005-.025-.013-.05-.02-.078.138-.064.273-.13.43-.204.055.19.104.36.17.578h-.644c.153-.13.227-.19.35-.295h-.285zm.92 4.07c-.227.03-.46.073-.696.086-.053.003-.132-.085-.164-.15-.223-.448.053-.463.383-.435.127.01.256.002.367.002.036.16.066.293.11.498m1.025-.557c.037-.015.244.22.223.294-.043.14-.195.25-.34.415-.158-.164-.33-.26-.35-.38-.056-.35.287-.26.467-.33m1.74.225l.27-.038c-.026.092-.046.187-.06.283-.013.113-.012.227-.017.342-.14-.085-.39.08-.437-.204-.032-.203.018-.35.245-.383m.814-1.493c.084.108.11.25.065.382-.246.5-.36-.187-.584-.074.12-.247.257-.453.52-.308m-.065-2.137c.153.012.4-.028.44.045.093.17.153.464-.106.538-.4.113-.218-.326-.364-.468l.03-.115m1.01 6.746c.04-.028.08-.055.117-.083.073.108.146.215.25.374.04-.147.066-.253.093-.36.037.007.074.012.11.017-.01.135-.032.268-.07.396-.012.034-.187.057-.226.02-.102-.112-.193-.233-.273-.363m-.01 10.404c-.037-.054.112-.234.193-.385.1.24.17.414.24.587l-.035.086c-.15-.07-.285-.168-.4-.29m-.595 4.434v.003c.155.16.31.316.458.467l.064-.315c.135.143.252.3.353.468.07.158.07.358-.2.306-.137-.035-.25-.127-.308-.254l-.476.03c-.057-.26-.23-.52.11-.706m-.56-1.72c.01.154.07.32.012.413-.053.083-.298.153-.346.11-.108-.14-.196-.293-.258-.457l.407-.172c-.007-.138-.047-.313-.01-.33.182-.077.37-.14.562-.185.074.452-.096.625-.367.62m-.363 2.76c.196-.095.383-.184.56-.268-.003.035-.054.173-.01.215.342.34-.04.46-.2.605-.057.052-.258-.054-.384-.085.013-.197.024-.346.034-.468m.01-1.635l.34.277c-.037.274-.037.274-.665-.03.15-.112.283-.215.326-.247m.146-15.782c-.02.023-.104-.01-.16-.02.022-.06.042-.124.09-.264l-.33.158c-.016-.046-.03-.092-.045-.14.224-.063.448-.127.673-.193l.058.097c-.094.122-.182.25-.286.36m1.29 15.68c-.072.254-.12.417-.18.62-.093-.022-.2-.048-.326-.08l-.016.145c-.05-.036-.122-.065-.135-.112-.03-.134-.047-.27-.054-.407l.71-.165m-.63-12.344l-.152-.506-.308-.224c.01-.04.022-.078.034-.118.19 0 .446-.078.56.016.29.236.128.514-.133.83m1.1 8.14c-.05-.202-.08-.335-.11-.463l.396-.298c.094.175.157.366.186.563-.004.068-.29.125-.472.198m.4 4.624l.428-.31c.027-.022.06-.07.076-.064.075.028.177.05.21.11.053.122.09.248.11.378-.317-.038-.647.254-.824-.114m.39 1.726c-.092-.167-.156-.348-.19-.536l.12-.097c.19.04.37.106.54.195.05.034.02.314-.055.376-.1.08-.37.12-.415.062m-.032-1.373c.07.102.123.184.145.216-.182.237-.287.636-.704.4-.013-.424-.013-.424.56-.615m-.34 1.34l.078.304c.088-.018.178-.015.265.008.096.06.176.14.232.238.062.118.115.24.16.367-.31.468-.61-.36-1.02-.067.104-.316.178-.54.283-.85m-.49 2.383c.066-.017.13-.04.193-.06.02.07.068.152.047.206-.022.056-.14.132-.172.116-.142-.084-.278-.177-.408-.28l.33-.382.12.12-.17.238c.03.02.05.044.06.04m-.1-21.74c.145-.003.296.132.433.2.13-.084.274-.148.425-.188.05-.008.18.204.19.322.006.085-.123.253-.198.257-.17-.025-.335-.08-.488-.158-.112.094-.315.413-.545-.047-.037-.07-.21-.072-.318-.104l-.562.278-.354-.153c.154-.446.21-.458.912-.198.153-.1.323-.17.503-.208m.22-.96l.097.257.154-.128c-.072.386-.072.386-.56.345.096-.144.192-.292.31-.475m1.13 16.077h.613l.053.428.278-.257-.158.448c-.098.005-.195.005-.292-.002-.184-.02-.418.002-.527-.103-.077-.074.017-.326.034-.513m.834-5.426c-.117.095-.27.465-.53.215-.468-.45.23-.485.354-.793l.176.58m-.27-9.61c-.018.076-.033.152-.054.243l.182-.016.02.074c-.152.06-.305.12-.457.178-.216-.56-.216-.56.31-.48m.68 1.317c.146-.238.46-.31.695-.162.002 0 .003.002.005.003.1.098.07.323.108.534-.23-.05-.354-.266-.497-.022-.02.032-.233-.01-.314-.073-.046-.038-.037-.2.002-.28m1.044-4.8c.057.056.118.118.198.2l-.513.38-.16-.253c.173-.12.34-.233.475-.328m-.186 11.626l.325-.536c.12.15.313.286.293.38-.098.475-.402.035-.618.156m1.02.967c.168.65.168.65-.324.658.152-.215-.436-.763.325-.657m-.803 4.897l.293.32c-.04.053-.085.11-.127.16.11.08.156.113.252.18-.116-.346.005-.486.326-.454.143.47.143.47-.42.632l-.168-.345-.34.428c-.26-.697-.26-.697.184-.92m.09-5.397c-.06.142-.12.283-.182.424l-.15-.15c.13-.122.258-.247.398-.354.013-.01.173.12.163.15-.06.145-.128.288-.208.424-.034-.02-.067-.04-.103-.058l.207-.325-.127-.112m1.498 7.232l-1.142-.28c-.166.237-.353.055-.553-.042.21-.35.618-.532 1.02-.45.444.06.633.267.675.772m-.02-16.247c.148.016.294.042.44.075-.148.187-.09.623-.48.48l-.093-.316c-.016-.054-.063-.136-.043-.158.045-.05.11-.08.177-.082m.066-2.197c.08-.09.263-.093.403-.134.025.05.053.1.08.15-.34-.06-.007.574-.455.36-.062-.028-.09-.304-.03-.375m.608 16.044l.27-.898c.212.216.39.396.64.653-.383.02-.568.05-.373.386.103.175-.243.385-.472.32-.048-.172-.09-.326-.135-.48l.07.018m1.138-2.836c-.026.156-.052.297-.076.437l-.122-.012.133.205c-.012.013-.022.027-.035.04-.106-.078-.265-.133-.31-.237-.145-.326.16-.337.41-.432m.073 5.175l-.087-.01c-.016-.072-.03-.143-.057-.257l-.202.417c-.017-.15-.015-.3.008-.447.058-.107.133-.205.223-.287.062.093.114.195.15.302.006.095-.008.19-.037.28M67.86 14.04c.07-.236.126-.433.197-.68.332.376.282.528-.196.68m.668 8.53c-.053-.19-.1-.35-.17-.606-.07.158-.095.212-.118.267l-.083-.023c.03-.11.063-.318.09-.317.16.003.348-.162.48.093.162.303-.047.415-.2.584m-.353-1.96c.09-.28-.162-.645.256-.74.216-.052.353.108.355.356 0 .136-.247.316-.61.384m-.178 3.213c-.014.056-.19.093-.296.102-.258.02-.367-.132-.38-.374.115-.125.23-.25.342-.375.268.08.42.36.34.628 0 .008-.003.014-.005.02m.717-.654c-.023.052-.024.152-.05.157-.152.03-.342.1-.458.04-.133-.096-.227-.238-.264-.398-.02-.06.125-.235.204-.242.15.01.298.044.437.103.078.022.155.048.232.072.117-.075.125-.328.4-.1.202.166.472.244.516.577l-.915.096v-.476c-.037.055-.07.113-.1.172M70.95 11.25c.194.006.244.15.187.495l-.336.11V11.6c-.067.06-.117.102-.168.146.03-.227-.017-.505.32-.496m.34 2.898c.288-.088.49-.025.47.446l-.632-.29c.054-.054.098-.136.16-.156m.7 4.69c-.086-.14-.177-.29-.247-.41l.425-.33.027.242.012-.01-.218.51m-.34 2.275c-.1-.194-.286-.39-.253-.534.036-.156.275-.267.443-.413-.038.193-.068.344-.116.578l.272-.16.043.044c-.126.155-.25.312-.39.485m-1.387.244c.18.087.358.176.55.27l.21-.367c.157.123.3.24.448.35.13.095.265.183.397.273l-.11.156c-.28-.26-.566.088-.82-.02-.04-.092-.077-.18-.116-.267l-.273.352-.125-.34-.212.11c.02-.194.035-.356.053-.518m.614-2.37l-.375.644.45-.27.07.096-.282.262-.456.147.267-.65-.403-.186c.365-.45.365-.45.73-.045m.695.57c-.135-.053-.255-.138-.35-.248-.02-.02.032-.12.053-.184l-.08-.028c-.025.044-.053.087-.082.128-.014.017-.043.023-.097.048-.005-.05-.004-.098 0-.147.064-.286.33-.272.51-.258.12.01.23.206.342.32-.12.11.02.445-.296.37m-.452 1.023c.004.107-.004.215-.02.32-.037.236-.257.397-.492.36-.02-.002-.04-.006-.06-.012-.187-.35.005-.527.25-.654.105-.026.215-.03.322-.015m-.03-.377c.035-.063.066-.13.107-.19.035-.042.073-.082.114-.12-.053.007-.107.004-.16-.006-.136-.05-.27-.11-.402-.166.274-.024.596-.177.72.275l.304-.123.024.055c-.157.12-.32.23-.49.332-.046.026-.143-.035-.217-.056m-.424-2.506c.082-.347.723.098.61-.488.16.113.16.113.055.596.068-.064.108-.1.146-.14.027-.03.052-.066.11-.14-.03.232.13.566-.222.4-.083.072-.13.148-.188.16-.158.022-.317.037-.478.043v.14l.604.037c.036.18.036.18-.326.467l-.366-.414-.18.23c-.052-.1-.104-.198-.154-.298-.017-.033-.03-.067-.062-.134l.48-.123-.028-.335m1.896-.447c.06.076.11.176.19.217.188.07.282.278.213.465-.01.026-.022.052-.038.075-.068.116-.296.137-.5.22-.002.022-.012.123-.02.224l-.093.096-.106-.224c.173-.128.156-.307-.054-.555l.408-.518m-.07-1.036c.154.004.308.025.458.062-.064.123.102.357-.182.382-.02.002-.03.077-.043.126h-.39l-.063-.443c.044-.027.13-.122.22-.128m.646-.82c-.144.398-.248.848-.812.625.106-.394.21-.837.812-.625m-.358-7.3c.232-.026.466-.037.408.283-.022.122-.17.22-.26.33-.172-.165-.32-.338-.148-.613m-.214 9.146c.054-.148.11-.296.163-.444l.798.102c-.162.357-.584.515-.94.352l-.022-.01m.413 1.308l.025-.024c.01.01.023.02.022.027 0 .01-.016.016-.025.024l-.023-.026m.166 2.37l.183.592-.407-.222-.32.22c-.05-.087-.144-.176-.142-.264.01-.113.06-.22.142-.298.036-.033.168.038.273.066l.27-.093m.648-2.582c.134.228.203.504-.036.62.023.2.02.402-.015.6-.028.085-.213.153-.33.16-.17-.01-.335-.037-.497-.083l-.075.357c-.077-.134-.164-.25-.15-.265.153-.152.254-.28-.05-.365.05-.1.073-.233.153-.29.212-.154.448-.275.74-.446-.12-.024-.203-.04-.285-.06-.004-.02-.01-.043-.013-.065.195-.06.535-.203.558-.162m1.078.727c.047-.103.297-.138.46-.157.163.004.323.026.48.066l-.245.264.137.268-.273.024c-.16.016-.403.104-.46.035-.11-.14-.147-.327-.1-.5m1.07-2.274c.08.134.165.27.3.49l-.358-.103.054.153c-.32.08-.176-.256-.3-.353.1-.063.202-.125.303-.187m-.15 6.035c-.21-.096-.312-.337-.234-.555.108-.338.438.006.583-.19.102.337.103.637-.35.746m.266-4.61l-.152-.025c-.084-.18-.146-.37-.182-.565-.008-.088.134-.19.217-.284.13.108.37.22.366.325-.047.2-.132.386-.25.55m.34-1.926c-.185.225-.05.596-.456.49l-.19-.59.646.1m-.408-1.705c.458.027.17.4.304.644l-.466-.037c.055-.208.102-.378.162-.608m1.027-6.334c.082.07.245.185.232.206-.09.15-.192.294-.305.43l-.22-.124.293-.512m3.013 16.51c.247-.047.234-.05.156.248-.02.073.08.177.18.378l-.473-.165c.05-.17.09-.293.138-.462m.715-19.684c.064.166.116.335.156.508-.01.078-.045.15-.1.208-.112-.043-.223-.094-.33-.152l.273-.563m18.84 20.79c-1.168-13.717-18-24.463-38.32-24.463-18.583 0-34.24 8.986-37.68 21.01.036.004.07.006.106.006-.022.216-.042.432-.068.7-.068-.037-.133-.082-.19-.135-.24.946-.406 1.91-.492 2.882-.006.07-.03.138-.07.196V36.76c5.252-2.552 10.788-4.472 16.49-5.72h-.398c-.01-.04-.02-.08-.032-.12.29.013-.02-.517.362-.36.113.046.15.28.214.446l.308-.07c.016-.06.037-.113.063-.123.16-.032.324-.032.483 0 4.9-1.04 9.872-1.702 14.874-1.98-.07-.075-.13-.158-.18-.247-.042-.07-.046-.205-.096-.22-.325-.107-.33-.375-.4-.67h.454l-.126.46c.12-.003.242.004.362.02.107.022.288.063.297.118.02.173.018.348-.012.52.134-.007.267-.018.4-.025l.126-.176c-.07-.04-.153-.087-.173-.1.38-.168.77-.348 1.17-.512.07-.03.168.01.29.02-.18.138-.312.24-.443.344l.04.08.203-.05c.014.017.027.036.04.054-.15.1-.302.2-.446.308.358-.015.715-.03 1.073-.04l-.297-.38c.175-.076.35-.152.525-.23l.072.1-.158.485-.044.02c.342-.01.686-.022 1.03-.03.003-.21.063-.39.412-.202l.087-.456-.158.01c.166-.094.24-.416.54-.14.114.106.44-.02.672-.036.142-.01.335-.063.41.007.087.08.067.274.097.418.026.122.056.25.083.374.06 0 .118-.003.18-.003 14.268 0 27.868 2.875 38.39 8.105V26.04c-.04-.048-.065-.107-.07-.17m-33.247-5.687l.01-.012-.023-.015.013.028m-6.71 8.492l.467-.006.03-.24-.625-.034.13.28"/></svg>